<svg xmlns="http://www.w3.org/2000/svg" width="24" height="24" viewBox="0 0 24 24" fill="none" stroke="currentColor" stroke-width="2" stroke-linecap="round" stroke-linejoin="round" class="lucide lucide-package w-8 h-8" data-lov-id="src/components/Features.tsx:46:10" data-lov-name="Package" data-component-path="src/components/Features.tsx" data-component-line="46" data-component-file="Features.tsx" data-component-name="Package" data-component-content="%7B%22className%22%3A%22w-8%20h-8%22%7D"><path d="M11 21.73a2 2 0 0 0 2 0l7-4A2 2 0 0 0 21 16V8a2 2 0 0 0-1-1.73l-7-4a2 2 0 0 0-2 0l-7 4A2 2 0 0 0 3 8v8a2 2 0 0 0 1 1.73z"></path><path d="M12 22V12"></path><path d="m3.3 7 7.703 4.734a2 2 0 0 0 1.994 0L20.7 7"></path><path d="m7.5 4.27 9 5.15"></path></svg>