<?xml version="1.0" encoding="UTF-8" standalone="no"?>
<!-- Created with Inkscape (http://www.inkscape.org/) -->

<svg
   width="56.593952mm"
   height="8.4195223mm"
   viewBox="0 0 56.593952 8.4195223"
   version="1.1"
   id="svg1"
   xmlns="http://www.w3.org/2000/svg"
   xmlns:svg="http://www.w3.org/2000/svg">
  <defs
     id="defs1" />
  <g
     id="layer1"
     style="display:inline"
     transform="translate(-20.801474,-21.124311)">
    <g
       id="g2"
       transform="translate(0.28045649,0.61549887)"
       style="display:inline;fill:#f2f2f2">
      <g
         id="g27"
         transform="matrix(0.26458333,0,0,0.26458333,6.6462346,12.379641)"
         style="fill:#f2f2f2">
        <text
           xml:space="preserve"
           style="font-size:26.3795px;font-family:russo;-inkscape-font-specification:russo;display:inline;fill:#f2f2f2;fill-opacity:1;stroke-width:2.19829"
           x="154.09381"
           y="55.885483"
           id="text15"><tspan
             id="tspan15"
             x="154.09381"
             y="55.885483"
             style="font-style:normal;font-variant:normal;font-weight:normal;font-stretch:normal;font-family:'Russo One';-inkscape-font-specification:'Russo One';fill:#f2f2f2;fill-opacity:1;stroke-width:2.19829">RUNNER</tspan></text>
        <g
           id="g16"
           transform="matrix(0.66120522,0,0,0.66120522,83.239915,26.071935)"
           style="fill:#f2f2f2;fill-opacity:1">
          <path
             d="m 16.5731,17.159382 h 14.204 c 4.169,0.035 7.19,1.237 9.063,3.604 1.873,2.367 2.491,5.6 1.855,9.699 -0.247,1.873 -0.795,3.71 -1.643,5.512 -0.813,1.802 -1.943,3.427 -3.392,4.876 -1.767,1.837 -3.657,3.003 -5.671,3.498 -2.014,0.495 -4.099,0.742 -6.254,0.742 h -6.36 l -2.014,10.07 H 8.9941003 l 7.5789997,-38.001 v 0 m 6.201,6.042 -3.18,15.9 c 0.212,0.035 0.424,0.053 0.636,0.053 0.247,0 0.495,0 0.742,0 3.392,0.035 6.219,-0.3 8.48,-1.007 2.261,-0.742 3.781,-3.321 4.558,-7.738 0.636,-3.71 0,-5.848 -1.908,-6.413 -1.873,-0.565 -4.222,-0.83 -7.049,-0.795 -0.424,0.035 -0.83,0.053 -1.219,0.053 -0.353,0 -0.724,0 -1.113,0 l 0.053,-0.053"
             id="path1"
             style="fill:#f2f2f2;fill-opacity:1" />
          <path
             d="m 50.0871,7.0363815 h 7.314 l -2.067,10.1230005 h 6.572 c 3.604,0.071 6.289,0.813 8.056,2.226 1.802,1.413 2.332,4.099 1.59,8.056 l -3.551,17.649 h -7.42 l 3.392,-16.854 c 0.353,-1.767 0.247,-3.021 -0.318,-3.763 -0.565,-0.742 -1.784,-1.113 -3.657,-1.113 l -5.883,-0.053 -4.346,21.783 h -7.314 l 7.632,-38.0540005 v 0"
             id="path2"
             style="fill:#f2f2f2;fill-opacity:1" />
          <path
             d="m 79.4061,17.159382 h 14.204 c 4.169,0.035 7.19,1.237 9.063,3.604 1.873,2.367 2.491,5.6 1.855,9.699 -0.247,1.873 -0.795,3.71 -1.643,5.512 -0.813,1.802 -1.943,3.427 -3.392,4.876 -1.767,1.837 -3.657,3.003 -5.671,3.498 -2.014,0.495 -4.099,0.742 -6.254,0.742 h -6.36 l -2.014,10.07 h -7.367 l 7.579,-38.001 v 0 m 6.201,6.042 -3.18,15.9 c 0.212,0.035 0.424,0.053 0.636,0.053 0.247,0 0.495,0 0.742,0 3.392,0.035 6.219,-0.3 8.48,-1.007 2.261,-0.742 3.781,-3.321 4.558,-7.738 0.636,-3.71 0,-5.848 -1.908,-6.413 -1.873,-0.565 -4.222,-0.83 -7.049,-0.795 -0.424,0.035 -0.83,0.053 -1.219,0.053 -0.353,0 -0.724,0 -1.113,0 l 0.053,-0.053"
             id="path3-8"
             style="fill:#f2f2f2;fill-opacity:1" />
        </g>
      </g>
      <g
         id="g1"
         style="fill:#f2f2f2">
        <rect
           style="fill:#f2f2f2;fill-opacity:1;stroke:#3b36d0;stroke-width:0;stroke-dasharray:none;stroke-opacity:1"
           id="rect30"
           width="8.4149685"
           height="8.4149685"
           x="20.521017"
           y="20.513365" />
        <text
           xml:space="preserve"
           style="font-size:6.78553px;font-family:russo;-inkscape-font-specification:russo;letter-spacing:-0.79375px;word-spacing:0px;display:inline;fill:#000000;fill-opacity:1;stroke:#3b36d0;stroke-width:0;stroke-dasharray:none;stroke-opacity:1"
           x="19.716951"
           y="27.571955"
           id="text15-2-1"
           transform="scale(1.0500044,0.95237697)"><tspan
             id="tspan15-9-7"
             x="19.716951"
             y="27.571955"
             style="font-style:normal;font-variant:normal;font-weight:normal;font-stretch:normal;font-size:6.78553px;font-family:'Source Code Pro';-inkscape-font-specification:'Source Code Pro';letter-spacing:-0.79375px;word-spacing:0px;fill:#000000;fill-opacity:1;stroke:#3b36d0;stroke-width:0;stroke-dasharray:none;stroke-opacity:1">&gt;_</tspan></text>
      </g>
    </g>
    <g
       id="g8"
       transform="translate(0.28045649,0.61549887)"
       style="display:none">
      <g
         id="g6"
         transform="matrix(0.26458333,0,0,0.26458333,6.6462346,12.379641)">
        <text
           xml:space="preserve"
           style="font-size:26.3795px;font-family:russo;-inkscape-font-specification:russo;display:inline;fill:#0b0c0e;fill-opacity:1;stroke-width:2.19829"
           x="154.09381"
           y="55.885483"
           id="text2"><tspan
             id="tspan2"
             x="154.09381"
             y="55.885483"
             style="font-style:normal;font-variant:normal;font-weight:normal;font-stretch:normal;font-family:'Russo One';-inkscape-font-specification:'Russo One';fill:#0b0c0e;fill-opacity:1;stroke-width:2.19829">RUNNER</tspan></text>
        <g
           id="g5"
           transform="matrix(0.66120522,0,0,0.66120522,83.239915,26.071935)"
           style="fill:#0b0c0e;fill-opacity:1">
          <path
             d="m 16.5731,17.159382 h 14.204 c 4.169,0.035 7.19,1.237 9.063,3.604 1.873,2.367 2.491,5.6 1.855,9.699 -0.247,1.873 -0.795,3.71 -1.643,5.512 -0.813,1.802 -1.943,3.427 -3.392,4.876 -1.767,1.837 -3.657,3.003 -5.671,3.498 -2.014,0.495 -4.099,0.742 -6.254,0.742 h -6.36 l -2.014,10.07 H 8.9941003 l 7.5789997,-38.001 v 0 m 6.201,6.042 -3.18,15.9 c 0.212,0.035 0.424,0.053 0.636,0.053 0.247,0 0.495,0 0.742,0 3.392,0.035 6.219,-0.3 8.48,-1.007 2.261,-0.742 3.781,-3.321 4.558,-7.738 0.636,-3.71 0,-5.848 -1.908,-6.413 -1.873,-0.565 -4.222,-0.83 -7.049,-0.795 -0.424,0.035 -0.83,0.053 -1.219,0.053 -0.353,0 -0.724,0 -1.113,0 l 0.053,-0.053"
             id="path3"
             style="fill:#0b0c0e;fill-opacity:1" />
          <path
             d="m 50.0871,7.0363815 h 7.314 l -2.067,10.1230005 h 6.572 c 3.604,0.071 6.289,0.813 8.056,2.226 1.802,1.413 2.332,4.099 1.59,8.056 l -3.551,17.649 h -7.42 l 3.392,-16.854 c 0.353,-1.767 0.247,-3.021 -0.318,-3.763 -0.565,-0.742 -1.784,-1.113 -3.657,-1.113 l -5.883,-0.053 -4.346,21.783 h -7.314 l 7.632,-38.0540005 v 0"
             id="path4"
             style="fill:#0b0c0e;fill-opacity:1" />
          <path
             d="m 79.4061,17.159382 h 14.204 c 4.169,0.035 7.19,1.237 9.063,3.604 1.873,2.367 2.491,5.6 1.855,9.699 -0.247,1.873 -0.795,3.71 -1.643,5.512 -0.813,1.802 -1.943,3.427 -3.392,4.876 -1.767,1.837 -3.657,3.003 -5.671,3.498 -2.014,0.495 -4.099,0.742 -6.254,0.742 h -6.36 l -2.014,10.07 h -7.367 l 7.579,-38.001 v 0 m 6.201,6.042 -3.18,15.9 c 0.212,0.035 0.424,0.053 0.636,0.053 0.247,0 0.495,0 0.742,0 3.392,0.035 6.219,-0.3 8.48,-1.007 2.261,-0.742 3.781,-3.321 4.558,-7.738 0.636,-3.71 0,-5.848 -1.908,-6.413 -1.873,-0.565 -4.222,-0.83 -7.049,-0.795 -0.424,0.035 -0.83,0.053 -1.219,0.053 -0.353,0 -0.724,0 -1.113,0 l 0.053,-0.053"
             id="path5"
             style="fill:#0b0c0e;fill-opacity:1" />
        </g>
      </g>
      <g
         id="g7">
        <rect
           style="fill:#1a1a1a;fill-opacity:1;stroke:#3b36d0;stroke-width:0;stroke-dasharray:none;stroke-opacity:1"
           id="rect6"
           width="8.4149685"
           height="8.4149685"
           x="20.521017"
           y="20.513365" />
        <text
           xml:space="preserve"
           style="font-size:6.78553px;font-family:russo;-inkscape-font-specification:russo;letter-spacing:-0.79375px;word-spacing:0px;display:inline;fill:#f9f9f9;fill-opacity:1;stroke:#3b36d0;stroke-width:0;stroke-dasharray:none;stroke-opacity:1"
           x="19.716951"
           y="27.571955"
           id="text6"
           transform="scale(1.0500044,0.95237697)"><tspan
             id="tspan6"
             x="19.716951"
             y="27.571955"
             style="font-style:normal;font-variant:normal;font-weight:normal;font-stretch:normal;font-size:6.78553px;font-family:'Source Code Pro';-inkscape-font-specification:'Source Code Pro';letter-spacing:-0.79375px;word-spacing:0px;fill:#f9f9f9;fill-opacity:1;stroke:#3b36d0;stroke-width:0;stroke-dasharray:none;stroke-opacity:1">&gt;_</tspan></text>
      </g>
    </g>
  </g>
</svg>
