<?xml version="1.0" encoding="UTF-8" standalone="no"?>
<!-- Created with Inkscape (http://www.inkscape.org/) -->

<svg
   width="94.962502mm"
   height="8.627284mm"
   viewBox="0 0 94.962502 8.627284"
   version="1.1"
   id="svg1"
   xml:space="preserve"
   xmlns="http://www.w3.org/2000/svg"
   xmlns:svg="http://www.w3.org/2000/svg"><defs
     id="defs1" /><g
     id="layer1"
     style="display:inline"
     transform="translate(-23.548068,-81.227087)"><g
       id="g8-3-2"
       transform="translate(-1.6410467,46.685397)"
       style="display:inline;"><path fill="currentColor"
         style="font-size:9.19029px;font-family:'Russo One';-inkscape-font-specification:'Russo One';letter-spacing:0.0529167px;word-spacing:0px;stroke-width:0.148104"
         d="m 35.779182,35.59279 h 3.859922 q 0.96498,0 1.396924,0.441134 0.441134,0.431944 0.441134,1.396924 v 0.919029 q 0,0.964981 -0.441134,1.406115 -0.431944,0.431943 -1.396924,0.431943 h -2.20567 v 1.838058 h -1.654252 z m 4.043727,1.838058 q 0,-0.551417 -0.551417,-0.551417 h -1.838058 v 2.021864 h 1.838058 q 0.551417,0 0.551417,-0.551418 z m 8.140364,4.595145 h -1.654252 v -2.619232 h -2.297573 v 2.619232 H 42.357196 V 35.59279 h 1.654252 v 2.52733 h 2.297573 v -2.52733 h 1.654252 z m 1.155748,-6.433203 h 3.859922 q 0.96498,0 1.396924,0.441134 0.441134,0.431944 0.441134,1.396924 v 0.919029 q 0,0.964981 -0.441134,1.406115 -0.431944,0.431943 -1.396924,0.431943 h -2.20567 v 1.838058 h -1.654252 z m 4.043727,1.838058 q 0,-0.551417 -0.551417,-0.551417 h -1.838058 v 2.021864 h 1.838058 q 0.551417,0 0.551417,-0.551418 z m 2.341292,3.262553 q 2.518139,0.137855 3.409598,0.137855 0.211376,0 0.33085,-0.119474 0.128664,-0.128664 0.128664,-0.340041 v -0.827126 h -2.113767 q -0.96498,0 -1.406114,-0.431944 -0.431944,-0.441134 -0.431944,-1.406114 v -0.275709 q 0,-0.96498 0.431944,-1.396924 0.441134,-0.441134 1.406114,-0.441134 h 3.225792 v 1.286641 h -2.85818 q -0.551418,0 -0.551418,0.551417 v 0.183806 q 0,0.551417 0.551418,0.551417 h 1.654252 q 0.900649,0 1.323402,0.422754 0.422753,0.422753 0.422753,1.323402 v 0.459514 q 0,0.900649 -0.422753,1.323402 -0.422753,0.422753 -1.323402,0.422753 -0.468705,0 -0.992551,-0.01838 l -0.845507,-0.03676 q -0.93741,-0.04595 -1.939151,-0.128665 z m 9.711911,1.332592 q -0.891458,0.0919 -1.746155,0.0919 -0.624939,0 -1.001741,-0.376802 -0.376802,-0.376802 -0.376802,-1.001741 v -2.343524 h -0.551418 v -1.24069 h 0.551418 l 0.183806,-1.102834 h 1.424495 v 1.102834 h 1.148786 v 1.24069 h -1.148786 v 2.113766 q 0,0.137855 0.0919,0.229758 0.0919,0.0919 0.229758,0.0919 h 1.194737 z m 3.499281,-3.538261 q -0.578989,0 -1.194738,0.275708 v 3.262553 h -1.608301 v -4.870854 h 1.424495 l 0.0919,0.597369 q 0.790365,-0.689271 1.654252,-0.689271 h 0.413563 v 1.424495 z m 3.177605,-0.275709 q -0.367612,0 -0.367612,0.367611 V 39.0851 h 1.562349 v -0.505466 q 0,-0.367611 -0.367611,-0.367611 z m 2.619232,3.722067 q -1.773726,0.183806 -3.216601,0.183806 -0.62494,0 -1.001742,-0.376802 -0.376802,-0.376802 -0.376802,-1.001741 v -2.20567 q 0,-0.689272 0.385992,-1.075264 0.395183,-0.395182 1.084455,-0.395182 h 1.838058 q 0.689272,0 1.075264,0.395182 0.395182,0.385992 0.395182,1.075264 v 1.700204 h -3.17065 v 0.367611 q 0,0.137855 0.0919,0.229758 0.0919,0.0919 0.229757,0.0919 0.909839,0 2.665184,-0.137854 z m 2.993812,-1.102834 q 0.487085,0 1.102835,-0.183806 v -0.551418 h -1.332592 q -0.137855,0 -0.229758,0.0919 -0.0919,0.0919 -0.0919,0.229758 v 0.0919 q 0,0.137855 0.0919,0.229758 0.0919,0.0919 0.229758,0.0919 z m -1.700204,-3.584214 q 1.681823,-0.183805 3.032796,-0.183805 0.62494,0 1.001742,0.376801 0.376802,0.376802 0.376802,1.001742 v 3.584213 h -1.424495 l -0.0919,-0.459514 q -0.431944,0.284899 -0.891458,0.422753 -0.450325,0.128664 -0.762795,0.128664 h -0.32166 q -0.624939,0 -1.001741,-0.376802 -0.376802,-0.376802 -0.376802,-1.001741 V 40.32579 q 0,-0.62494 0.376802,-1.001742 0.376802,-0.376802 1.001741,-0.376802 h 1.88401 v -0.367612 q 0,-0.137854 -0.0919,-0.229757 -0.0919,-0.0919 -0.229757,-0.0919 -0.597369,0 -1.323402,0.05514 -0.716843,0.05514 -1.157977,0.08271 z m 8.55393,-0.183805 q 0.744413,0 1.148786,0.551417 0.422753,-0.284899 0.909839,-0.413563 0.496275,-0.137854 0.882267,-0.137854 h 0.0919 q 0.62494,0 1.001742,0.376801 0.376802,0.376802 0.376802,1.001742 v 3.584213 h -1.608301 v -3.308504 q 0,-0.137855 -0.0919,-0.229757 -0.0919,-0.0919 -0.229757,-0.0919 h -0.04595 q -0.413564,0 -1.056884,0.183805 v 3.446359 H 84.12985 v -3.308504 q 0,-0.137855 -0.0919,-0.229757 -0.0919,-0.0919 -0.229757,-0.0919 h -0.04595 q -0.413563,0 -1.056884,0.183805 v 3.446359 h -1.608301 v -4.870854 h 1.424495 l 0.0919,0.459515 q 0.431944,-0.284899 0.882268,-0.413563 0.459515,-0.137854 0.771985,-0.137854 z m 5.190282,3.630164 q 2.518139,0.137855 3.409597,0.137855 0.211377,0 0.330851,-0.119474 0.128664,-0.128664 0.128664,-0.340041 v -0.827126 h -2.113767 q -0.96498,0 -1.406114,-0.431944 -0.431944,-0.441134 -0.431944,-1.406114 v -0.275709 q 0,-0.96498 0.431944,-1.396924 0.441134,-0.441134 1.406114,-0.441134 h 3.225792 v 1.286641 h -2.85818 q -0.551418,0 -0.551418,0.551417 v 0.183806 q 0,0.551417 0.551418,0.551417 h 1.654252 q 0.900648,0 1.323402,0.422754 0.422753,0.422753 0.422753,1.323402 v 0.459514 q 0,0.900649 -0.422753,1.323402 -0.422754,0.422753 -1.323402,0.422753 -0.468705,0 -0.992551,-0.01838 l -0.845507,-0.03676 q -0.93741,-0.04595 -1.939151,-0.128665 z m 8.195513,-2.481378 q -0.367611,0 -0.367611,0.367611 V 39.0851 h 1.562349 v -0.505466 q 0,-0.367611 -0.367611,-0.367611 z m 2.619238,3.722067 q -1.773731,0.183806 -3.216606,0.183806 -0.62494,0 -1.001742,-0.376802 -0.376802,-0.376802 -0.376802,-1.001741 v -2.20567 q 0,-0.689272 0.385992,-1.075264 0.395183,-0.395182 1.084454,-0.395182 h 1.838059 q 0.689271,0 1.075265,0.395182 0.39518,0.385992 0.39518,1.075264 v 1.700204 h -3.170649 v 0.367611 q 0,0.137855 0.0919,0.229758 0.0919,0.0919 0.229757,0.0919 0.909839,0 2.665192,-0.137854 z m 3.86689,-3.446358 q -0.57899,0 -1.19474,0.275708 v 3.262553 h -1.6083 v -4.870854 h 1.42449 l 0.0919,0.597369 q 0.79036,-0.689271 1.65425,-0.689271 h 0.41356 v 1.424495 z m 4.73995,-1.332593 h 1.70021 l -1.83806,4.870854 h -1.83806 l -1.83806,-4.870854 h 1.70021 l 1.05688,3.308505 z m 3.91284,1.056884 q -0.36761,0 -0.36761,0.367611 V 39.0851 h 1.56235 v -0.505466 q 0,-0.367611 -0.36761,-0.367611 z m 2.61924,3.722067 q -1.77373,0.183806 -3.21661,0.183806 -0.62494,0 -1.00174,-0.376802 -0.3768,-0.376802 -0.3768,-1.001741 v -2.20567 q 0,-0.689272 0.38599,-1.075264 0.39518,-0.395182 1.08446,-0.395182 h 1.83805 q 0.68928,0 1.07527,0.395182 0.39518,0.385992 0.39518,1.075264 v 1.700204 h -3.17065 v 0.367611 q 0,0.137855 0.0919,0.229758 0.0919,0.0919 0.22976,0.0919 0.90984,0 2.66519,-0.137854 z m 3.86688,-3.446358 q -0.57898,0 -1.19473,0.275708 v 3.262553 h -1.6083 v -4.870854 h 1.42449 l 0.0919,0.597369 q 0.79037,-0.689271 1.65426,-0.689271 h 0.41356 v 1.424495 z"
         id="text2-5-6-1"
         aria-label="PHPStreamServer" /><path fill="currentColor"
         style="font-size:9.06598px;font-family:Roboto;-inkscape-font-specification:Roboto;letter-spacing:0.212483px;word-spacing:1.06242px;stroke-width:0.212483"
         d="m 32.920902,39.891343 q -0.332006,0.106242 -0.708279,0.04427 0.159363,0.08854 0.301018,0.199204 0.141656,0.110668 0.243472,0.256751 0.247898,0.336433 0.309872,0.725987 0.0664,0.385127 -0.03984,0.765827 -0.101815,0.376274 -0.362993,0.677293 -0.08411,0.09739 -0.20363,0.03984 0,0 -0.07083,-0.03099 -0.0664,-0.03099 -0.146083,-0.0664 -0.07968,-0.03541 -0.110669,-0.04869 -0.02213,-0.0089 -0.04427,0.0044 -0.01771,0.01771 -0.01328,0.03984 0,0.03099 0.0089,0.115096 0.0089,0.08854 0.01771,0.163789 0.0089,0.07525 0.0089,0.07525 0.01328,0.132802 -0.101815,0.181497 -0.36742,0.150509 -0.756974,0.132802 -0.389554,-0.01771 -0.743693,-0.199204 -0.349713,-0.181496 -0.593185,-0.517929 -0.101815,-0.141656 -0.168216,-0.309872 -0.06198,-0.16379 -0.09296,-0.34086 -0.03099,0.17707 -0.09296,0.34086 -0.06198,0.163789 -0.168217,0.309872 -0.243471,0.336433 -0.593184,0.517929 -0.349713,0.181497 -0.743694,0.199204 -0.389554,0.01771 -0.756974,-0.132802 -0.110668,-0.0487 -0.101815,-0.181497 0,0 0.0089,-0.07525 0.0089,-0.07525 0.01771,-0.163789 0.0089,-0.08854 0.01328,-0.119523 0,-0.01771 -0.02213,-0.03541 -0.01771,-0.01328 -0.03984,-0.0044 -0.03099,0.01328 -0.110668,0.04869 -0.07526,0.03541 -0.146083,0.0664 -0.0664,0.03099 -0.0664,0.03099 -0.123949,0.05755 -0.203631,-0.03984 -0.256751,-0.301019 -0.362993,-0.677293 -0.101815,-0.3807 -0.03984,-0.765827 0.06198,-0.389554 0.309873,-0.725987 0.101815,-0.146083 0.243471,-0.256751 0.141656,-0.115096 0.305445,-0.199204 -0.3807,0.06198 -0.708279,-0.04427 -0.398408,-0.128376 -0.681719,-0.402834 -0.278886,-0.278886 -0.416115,-0.646306 -0.137229,-0.36742 -0.101815,-0.7614 0.0089,-0.123949 0.137229,-0.15051 0,0 0.07525,-0.01328 0.07525,-0.01771 0.159363,-0.03541 0.08411,-0.01771 0.115095,-0.02213 0.02213,-0.0044 0.03099,-0.03099 0.0089,-0.02656 -0.0089,-0.04427 -0.02213,-0.02213 -0.07968,-0.08411 -0.05755,-0.0664 -0.110669,-0.123949 -0.04869,-0.05755 -0.04869,-0.05755 -0.08854,-0.09739 -0.02213,-0.203631 0.20363,-0.340859 0.53121,-0.553343 0.327579,-0.216911 0.717133,-0.274459 0.389554,-0.06197 0.787961,0.07083 0.168216,0.05312 0.314299,0.15051 0.15051,0.09296 0.278885,0.221337 -0.07968,-0.16379 -0.128375,-0.332006 -0.04427,-0.172643 -0.04427,-0.349713 0,-0.416114 0.17707,-0.765827 0.17707,-0.35414 0.482515,-0.597611 0.305446,-0.247898 0.690573,-0.336433 0.119522,-0.03099 0.185924,0.08411 0,0 0.03541,0.0664 0.03984,0.0664 0.08411,0.141656 0.04427,0.07525 0.06197,0.101815 0.0089,0.01771 0.03099,0.02213 0.02656,0 0.03984,-0.02213 0.01771,-0.03099 0.05755,-0.106242 0.04427,-0.07525 0.07968,-0.137229 0.03984,-0.0664 0.03984,-0.0664 0.0664,-0.110669 0.19035,-0.08411 0.389554,0.09296 0.695,0.336433 0.305445,0.243471 0.482515,0.597611 0.17707,0.354139 0.17707,0.765827 0,0.181497 -0.04869,0.35414 -0.04427,0.168216 -0.123949,0.332006 0.128376,-0.128376 0.274458,-0.225764 0.15051,-0.09739 0.318726,-0.15051 0.398408,-0.132802 0.787961,-0.07083 0.389554,0.05755 0.717134,0.274459 0.327579,0.212484 0.531209,0.553343 0.0664,0.110669 -0.02213,0.203631 0,0 -0.05312,0.05755 -0.0487,0.05755 -0.106242,0.123949 -0.05755,0.0664 -0.07968,0.08854 -0.01328,0.01771 -0.0044,0.04427 0.0089,0.02213 0.03099,0.02656 0.03099,0.0044 0.115095,0.02213 0.08411,0.01771 0.159363,0.03541 0.07525,0.01328 0.07525,0.01328 0.123949,0.02213 0.137229,0.15051 0.03099,0.398407 -0.110669,0.765827 -0.137229,0.362993 -0.416114,0.641879 -0.278885,0.278885 -0.672866,0.402834 z m -2.682609,-0.362994 q 0.208057,-0.225764 0.208057,-0.53121 0,-0.04427 -0.0044,-0.08853 l 0.385127,-0.123949 q 0.09296,0.07968 0.216911,0.07968 0.132803,0 0.225764,-0.09296 0.09296,-0.09296 0.09296,-0.225764 0,-0.132802 -0.09296,-0.225764 -0.09296,-0.09296 -0.225764,-0.09296 -0.115095,0 -0.20363,0.07525 -0.08854,0.07083 -0.110669,0.17707 l -0.385127,0.128376 q -0.17707,-0.309873 -0.526783,-0.385127 V 37.8152 q 0.159363,-0.09296 0.159363,-0.274459 0,-0.132802 -0.09296,-0.225764 -0.09296,-0.09739 -0.225764,-0.09739 -0.132802,0 -0.225764,0.09739 -0.09296,0.09296 -0.09296,0.225764 0,0.181497 0.159363,0.274459 v 0.407261 q -0.349713,0.07525 -0.526783,0.385127 L 28.582689,38.47921 q -0.02213,-0.106242 -0.110668,-0.17707 -0.08854,-0.07525 -0.203631,-0.07525 -0.128376,0 -0.225764,0.09296 -0.09296,0.09296 -0.09296,0.225764 0,0.132803 0.09296,0.225764 0.09739,0.09296 0.225764,0.09296 0.123949,0 0.216911,-0.07968 l 0.389554,0.123949 q -0.0044,0.04427 -0.0044,0.08853 0,0.305446 0.20363,0.53121 l -0.239044,0.332006 q -0.01771,-0.0044 -0.03541,-0.0044 -0.132803,0 -0.225764,0.09739 -0.09296,0.09296 -0.09296,0.225764 0,0.128376 0.09296,0.225764 0.09296,0.09296 0.225764,0.09296 0.132802,0 0.225764,-0.09296 0.09296,-0.09739 0.09296,-0.225764 0,-0.07083 -0.02656,-0.132802 l 0.239045,-0.332006 q 0.154936,0.07083 0.327579,0.07083 0.168216,0 0.323153,-0.07083 l 0.239044,0.332006 q -0.02656,0.06197 -0.02656,0.132802 0,0.128376 0.09296,0.225764 0.09296,0.09296 0.225764,0.09296 0.132803,0 0.225765,-0.09296 0.09296,-0.09739 0.09296,-0.225764 0,-0.132802 -0.09296,-0.225764 -0.09296,-0.09739 -0.225765,-0.09739 -0.01771,0 -0.03099,0.0044 z"
         id="text1-2-16-2"
         aria-label="🌸" /></g></g></svg>
